<svg width="20" height="16" viewBox="0 0 20 16" fill="none" xmlns="http://www.w3.org/2000/svg">
<path d="M1.66667 3.83333L8.47077 8.5962C9.02175 8.98189 9.29724 9.17473 9.59689 9.24942C9.86158 9.3154 10.1384 9.3154 10.4031 9.24942C10.7028 9.17473 10.9783 8.98189 11.5292 8.5962L18.3333 3.83333M5.66667 14.6667H14.3333C15.7335 14.6667 16.4335 14.6667 16.9683 14.3942C17.4387 14.1545 17.8212 13.772 18.0609 13.3016C18.3333 12.7669 18.3333 12.0668 18.3333 10.6667V5.33333C18.3333 3.9332 18.3333 3.23314 18.0609 2.69836C17.8212 2.22795 17.4387 1.8455 16.9683 1.60582C16.4335 1.33333 15.7335 1.33333 14.3333 1.33333H5.66667C4.26654 1.33333 3.56647 1.33333 3.0317 1.60582C2.56129 1.8455 2.17884 2.22795 1.93916 2.69836C1.66667 3.23314 1.66667 3.9332 1.66667 5.33333V10.6667C1.66667 12.0668 1.66667 12.7669 1.93916 13.3016C2.17884 13.772 2.56129 14.1545 3.0317 14.3942C3.56647 14.6667 4.26654 14.6667 5.66667 14.6667Z" stroke="#5B5F5D" stroke-width="1.66667" stroke-linecap="round" stroke-linejoin="round"/>
</svg>
