<svg width="24" height="24" viewBox="0 0 24 24" fill="none" xmlns="http://www.w3.org/2000/svg">
<path d="M9.60195 21.0259V13.7519H6.81795C6.67341 13.7519 6.53478 13.6945 6.43258 13.5923C6.33037 13.4901 6.27295 13.3515 6.27295 13.2069V10.3299C6.27295 10.1854 6.33037 10.0468 6.43258 9.94458C6.53478 9.84237 6.67341 9.78495 6.81795 9.78495H9.59095V6.99995C9.52461 6.3395 9.60368 5.67254 9.8226 5.04591C10.0415 4.41927 10.395 3.84817 10.8581 3.37271C11.3213 2.89724 11.883 2.52895 12.5036 2.2937C13.1243 2.05844 13.789 1.96193 14.4509 2.01095H16.7709C16.9169 2.01066 17.057 2.06775 17.1613 2.1699C17.2655 2.27204 17.3253 2.41106 17.3279 2.55695V4.99295C17.3248 5.13859 17.2647 5.2772 17.1606 5.37907C17.0565 5.48095 16.9166 5.53798 16.7709 5.53795H15.3209C13.7549 5.53795 13.4539 6.27995 13.4539 7.37095V9.78395H17.1769C17.2543 9.78139 17.3313 9.79571 17.4026 9.82592C17.4739 9.85614 17.5377 9.90152 17.5897 9.95891C17.6417 10.0163 17.6805 10.0843 17.7035 10.1582C17.7265 10.2322 17.7332 10.3102 17.7229 10.3869L17.3859 13.2749C17.3691 13.4072 17.3043 13.5287 17.2038 13.6164C17.1034 13.7042 16.9743 13.752 16.8409 13.7509H13.4769V21.025C13.4788 21.1535 13.4549 21.281 13.4066 21.4001C13.3582 21.5192 13.2865 21.6274 13.1955 21.7182C13.1046 21.8091 12.9964 21.8807 12.8772 21.9289C12.7581 21.9772 12.6305 22.001 12.5019 21.999H10.5649C10.4374 21.9994 10.3111 21.9744 10.1934 21.9254C10.0756 21.8765 9.96883 21.8046 9.87918 21.7139C9.78953 21.6232 9.71884 21.5156 9.67125 21.3973C9.62365 21.279 9.60009 21.1534 9.60195 21.0259Z" fill="#525252"/>
</svg>
