<svg width="169" height="32" viewBox="0 0 169 32" fill="none" xmlns="http://www.w3.org/2000/svg">
<path d="M16.0001 16.9001C16.7733 16.9001 17.4001 16.2733 17.4001 15.5001C17.4001 14.7269 16.7733 14.1001 16.0001 14.1001C15.2269 14.1001 14.6001 14.7269 14.6001 15.5001C14.6001 16.2733 15.2269 16.9001 16.0001 16.9001Z" fill="#CDE600"/>
<path d="M1.89988 20.0001C-1.05012 24.9001 4.04988 26.4001 6.29988 24.7501C4.59988 27.2501 6.24988 31.9501 11.1499 29.1001C16.5999 25.9001 15.0999 16.8501 15.3999 15.8001C14.4999 15.9501 5.04988 14.7501 1.89988 20.0001Z" fill="#149800"/>
<path d="M6.30005 24.7498C7.00005 23.9498 7.75005 23.1998 8.45005 22.3998L10.7 20.1498C11.45 19.3998 12.2 18.6498 13 17.9498L14.15 16.8498L15.35 15.7998L14.3 16.9998L13.2 18.1498L10.95 20.3998C10.2 21.1498 9.45005 21.8998 8.65005 22.5998C7.90005 23.3498 7.15005 24.0498 6.30005 24.7498Z" fill="#CDE600"/>
<path d="M30.1001 10.9998C33.0501 6.09979 27.9501 4.59979 25.7001 6.24979C27.4001 3.74979 25.7501 -0.950212 20.8501 1.89979C15.4001 5.09979 16.9001 14.1498 16.6001 15.1998C17.5001 15.0498 26.9501 16.2498 30.1001 10.9998Z" fill="#149800"/>
<path d="M25.6999 6.25C24.9999 7.05 24.2499 7.8 23.5499 8.6L21.2999 10.85C20.5499 11.6 19.7999 12.35 18.9999 13.05L17.8499 14.15L16.6499 15.2L17.6999 14L18.7999 12.85L21.0499 10.6C21.7999 9.85 22.5499 9.1 23.3499 8.4C24.0999 7.65 24.8499 6.95 25.6999 6.25Z" fill="#CDE600"/>
<path d="M11.15 1.89986C6.15 -1.00014 4.65 3.99986 6.3 6.24986C3.8 4.59986 -0.999999 6.19986 1.9 10.9999C5.15 16.3499 14.35 14.8999 15.4 15.1499C15.25 14.2999 16.5 4.99986 11.15 1.89986Z" fill="#127700"/>
<path d="M6.30005 6.25C7.10005 6.95 7.90005 7.65 8.65005 8.35C9.45005 9.05 10.2 9.8 10.95 10.55L13.2 12.8L14.3 13.95L15.35 15.15L14.15 14.1L13 13.05C12.2 12.35 11.45 11.6 10.7 10.85L8.45005 8.6C7.75005 7.8 7.00005 7.05 6.30005 6.25Z" fill="#CDE600"/>
<path d="M20.85 29.1002C25.85 32.0002 27.35 27.0002 25.7 24.7502C28.25 26.4002 33 24.8002 30.1 20.0002C26.85 14.6502 17.65 16.1002 16.6 15.8502C16.75 16.7002 15.5 26.0002 20.85 29.1002Z" fill="#127700"/>
<path d="M25.7 24.7498C24.9 24.0498 24.1 23.3498 23.35 22.6498C22.55 21.9498 21.8 21.1998 21.05 20.4498L18.8 18.1998L17.7 16.9998L16.65 15.7998L17.85 16.8498L19 17.9498C19.8 18.6498 20.55 19.3998 21.3 20.1498L23.55 22.3998C24.25 23.1998 25 23.9498 25.7 24.7498ZM16 18.3998L17.25 29.7498C17.3 30.3998 16.8 30.9498 16.15 30.9998C15.45 31.0498 14.85 30.5998 14.75 29.9498V29.6998L16 18.3998Z" fill="#CDE600"/>
<path d="M56.6562 23.1484C56.9948 23.3411 57.2474 23.6562 57.4141 24.0938C57.5859 24.5625 57.625 25.0417 57.5312 25.5312C57.3229 26.5833 56.5495 27.25 55.2109 27.5312C53.7682 27.7656 52.513 27.6953 51.4453 27.3203C50.0182 26.8151 48.9219 25.724 48.1562 24.0469C47.8542 23.401 47.5859 22.625 47.3516 21.7188C47.2578 21.3646 47.1615 20.9609 47.0625 20.5078L46.9297 19.9141L46.8125 19.3359C46.0938 19.7109 45.2266 19.75 44.2109 19.4531C44.1849 20.4427 44.2969 21.2943 44.5469 22.0078H39.9766C39.9922 21.9401 40.3438 20.875 41.0312 18.8125C41.7188 16.75 42.2969 13.9766 42.7656 10.4922H48.5391C48.4766 12.5703 48.9531 15.8958 49.9688 20.4688C50.2708 21.7396 50.7057 22.8047 51.2734 23.6641C51.9297 24.5807 52.625 25.1302 53.3594 25.3125C54.0938 25.5 54.5755 25.5573 54.8047 25.4844C55.0391 25.4115 55.1901 25.3177 55.2578 25.2031C55.2161 25.2396 55.1224 25.2734 54.9766 25.3047C54.9245 25.3151 54.8672 25.3203 54.8047 25.3203C54.7526 25.3203 54.7083 25.3177 54.6719 25.3125C54.3281 25.2604 54.1224 25.0573 54.0547 24.7031C53.9974 24.4062 54.0365 24.1042 54.1719 23.7969C54.3698 23.3438 54.7318 23.0599 55.2578 22.9453C55.7526 22.8359 56.2188 22.9036 56.6562 23.1484ZM45.4062 13.6875C45.0104 14.8542 44.7109 15.9479 44.5078 16.9688C45.1224 17.0625 45.7057 17.0234 46.2578 16.8516C45.9661 15.6432 45.6823 14.5885 45.4062 13.6875ZM66.4922 23.6484C66.7526 23.9349 66.8958 24.2786 66.9219 24.6797C66.9844 25.7214 66.6406 26.5208 65.8906 27.0781C65.1406 27.6354 64.2005 27.7943 63.0703 27.5547C61.9453 27.3151 60.8984 26.7083 59.9297 25.7344C58.8984 24.8021 57.7474 23.2214 56.4766 20.9922C55.888 19.7005 55.375 18.7578 54.9375 18.1641C54.9948 19.7109 55.1979 20.987 55.5469 21.9922H51.3125C51.349 21.8672 51.388 21.7005 51.4297 21.4922C51.487 21.2266 51.5391 20.9375 51.5859 20.625C51.7266 19.7708 51.8255 18.8906 51.8828 17.9844C52.0599 15.2917 51.8646 12.7865 51.2969 10.4688H55.5703V10.4922C55.5651 10.513 55.5599 10.5339 55.5547 10.5547C55.5443 10.6276 55.5312 10.7083 55.5156 10.7969C55.4688 11.0677 55.4219 11.3568 55.375 11.6641C55.2292 12.638 55.1172 13.6042 55.0391 14.5625C56.0234 13.5156 56.5417 12.151 56.5938 10.4688H61.4688C60.901 10.9115 60.3385 11.5 59.7812 12.2344C59.2969 12.8802 58.9245 13.5312 58.6641 14.1875C58.3411 15.0156 58.2031 15.8307 58.25 16.6328C58.3281 18.0599 58.8099 19.513 59.6953 20.9922C60.5859 22.4661 61.612 23.6823 62.7734 24.6406C63.362 25.125 63.8724 25.4115 64.3047 25.5C64.6797 25.5781 64.9375 25.5026 65.0781 25.2734C65.1198 25.2005 65.138 25.1276 65.1328 25.0547C65.0599 25.1536 64.987 25.2318 64.9141 25.2891C64.8203 25.3672 64.7214 25.4089 64.6172 25.4141C64.2578 25.4401 64.0026 25.2656 63.8516 24.8906C63.7161 24.5573 63.7031 24.2318 63.8125 23.9141C63.9271 23.5807 64.1458 23.3438 64.4688 23.2031C64.7656 23.0729 65.1016 23.0417 65.4766 23.1094C65.888 23.1823 66.2266 23.362 66.4922 23.6484ZM72.2031 5.58594C73.651 4.60156 75.3724 4.10938 77.3672 4.10938C77.9141 4.10938 78.4635 4.21354 79.0156 4.42188C79.5677 4.63542 80.0495 4.92448 80.4609 5.28906C80.8984 5.67448 81.2031 6.10156 81.375 6.57031C81.5625 7.09115 81.5755 7.6224 81.4141 8.16406C81.3203 8.48698 81.151 8.76823 80.9062 9.00781C80.6719 9.24219 80.4036 9.40365 80.1016 9.49219C79.7839 9.59115 79.4792 9.59635 79.1875 9.50781C78.8646 9.41406 78.5885 9.22135 78.3594 8.92969C78.1406 8.64323 78.0391 8.3099 78.0547 7.92969C78.0703 7.50781 78.2526 7.23958 78.6016 7.125C78.7734 7.06771 78.9349 7.04948 79.0859 7.07031C79.2682 7.09115 79.4115 7.16667 79.5156 7.29688C79.3125 6.91146 78.9661 6.61198 78.4766 6.39844C78.0547 6.21094 77.6042 6.11979 77.125 6.125C75.8854 6.13542 74.7057 6.65365 73.5859 7.67969C73.2109 8.02344 72.8932 8.42969 72.6328 8.89844C71.8464 10.2839 71.4375 12.5833 71.4062 15.7969C71.3906 17.9115 71.1224 19.3854 70.6016 20.2188C70.0859 21.0521 69.4531 21.5964 68.7031 21.8516C67.9531 22.1068 67.2161 22.2083 66.4922 22.1562C65.7578 22.1042 65.1042 21.9036 64.5312 21.5547C63.9115 21.1745 63.4635 20.6589 63.1875 20.0078C62.9375 19.4141 62.7969 18.8125 62.7656 18.2031C62.75 17.7969 62.7474 17.3099 62.7578 16.7422L62.7812 16.0234L62.7969 15.3047C62.8229 14.1589 62.7552 13.2344 62.5938 12.5312C62.526 12.2135 62.4427 11.888 62.3438 11.5547C62.224 11.1432 62.1042 10.7891 61.9844 10.4922H66.5078C66.1849 10.9609 65.9349 11.7734 65.7578 12.9297C65.6068 13.9036 65.5495 14.7266 65.5859 15.3984C65.6016 15.6745 65.6198 15.9036 65.6406 16.0859C65.6771 16.3516 65.7266 16.5859 65.7891 16.7891C66.1953 17.7474 66.7031 18.1797 67.3125 18.0859C67.9219 17.987 68.2734 17.5078 68.3672 16.6484C68.4661 15.7839 68.5469 14.7083 68.6094 13.4219C68.6771 12.1302 68.8724 10.9062 69.1953 9.75C69.4297 8.92188 69.8125 8.14062 70.3438 7.40625C70.8698 6.67708 71.4896 6.07031 72.2031 5.58594ZM88.2031 23.1484C88.5417 23.3411 88.7943 23.6562 88.9609 24.0938C89.1328 24.5625 89.1719 25.0417 89.0781 25.5312C88.8698 26.5833 88.0964 27.25 86.7578 27.5312C85.3151 27.7656 84.0599 27.6953 82.9922 27.3203C81.5651 26.8151 80.4688 25.724 79.7031 24.0469C79.401 23.401 79.1328 22.625 78.8984 21.7188C78.8047 21.3646 78.7083 20.9609 78.6094 20.5078L78.4766 19.9141L78.3594 19.3359C77.6406 19.7109 76.7734 19.75 75.7578 19.4531C75.7318 20.4427 75.8438 21.2943 76.0938 22.0078H71.5234C71.5391 21.9401 71.8906 20.875 72.5781 18.8125C73.2656 16.75 73.8438 13.9766 74.3125 10.4922H80.0859C80.0234 12.5703 80.5 15.8958 81.5156 20.4688C81.8177 21.7396 82.2526 22.8047 82.8203 23.6641C83.4766 24.5807 84.1719 25.1302 84.9062 25.3125C85.6406 25.5 86.1224 25.5573 86.3516 25.4844C86.5859 25.4115 86.737 25.3177 86.8047 25.2031C86.763 25.2396 86.6693 25.2734 86.5234 25.3047C86.4714 25.3151 86.4141 25.3203 86.3516 25.3203C86.2995 25.3203 86.2552 25.3177 86.2188 25.3125C85.875 25.2604 85.6693 25.0573 85.6016 24.7031C85.5443 24.4062 85.5833 24.1042 85.7188 23.7969C85.9167 23.3438 86.2786 23.0599 86.8047 22.9453C87.2995 22.8359 87.7656 22.9036 88.2031 23.1484ZM76.9531 13.6875C76.5573 14.8542 76.2578 15.9479 76.0547 16.9688C76.6693 17.0625 77.2526 17.0234 77.8047 16.8516C77.513 15.6432 77.2292 14.5885 76.9531 13.6875ZM88.1172 17.3359C87.8724 17.1432 87.7135 16.8984 87.6406 16.6016C86.8594 16.9193 86.4896 17.6667 86.5312 18.8438C86.5625 19.8594 86.8203 20.7214 87.3047 21.4297C87.4766 21.6849 87.6172 21.875 87.7266 22H82.8594C82.8958 21.8802 82.9349 21.7109 82.9766 21.4922C83.0339 21.2109 83.0859 20.9089 83.1328 20.5859C83.2734 19.7005 83.3724 18.7917 83.4297 17.8594C83.6068 15.1094 83.4115 12.651 82.8438 10.4844H91.4297H91.4219V10.5C91.4167 10.5208 91.4141 10.5417 91.4141 10.5625C91.3984 10.625 91.3854 10.6953 91.375 10.7734C91.3281 11.0182 91.2839 11.2812 91.2422 11.5625C91.1068 12.4531 91 13.3411 90.9219 14.2266C90.6979 13.7474 90.4036 13.3672 90.0391 13.0859C89.6641 12.7943 89.2578 12.6484 88.8203 12.6484C88.2057 12.6484 87.6667 12.9193 87.2031 13.4609C86.7448 13.9974 86.4714 14.6693 86.3828 15.4766C86.7682 15.1901 87.1615 14.9896 87.5625 14.875C88.0885 14.724 88.6068 14.7266 89.1172 14.8828C89.5807 15.0286 89.8958 15.2344 90.0625 15.5C90.224 15.7344 90.3047 15.9948 90.3047 16.2812C90.3047 16.651 90.1745 16.9688 89.9141 17.2344C89.6484 17.5 89.3281 17.6328 88.9531 17.6328C88.6406 17.6328 88.362 17.5339 88.1172 17.3359ZM95.4141 18.3438C95.7318 18.8802 96.1276 19.1484 96.6016 19.1484C97.0703 19.1484 97.4635 18.8802 97.7812 18.3438C98.1094 17.7917 98.2734 17.0938 98.2734 16.25C98.2734 15.8906 98.2292 15.5312 98.1406 15.1719C98.0417 14.776 97.9036 14.4089 97.7266 14.0703C97.5755 13.7786 97.3932 13.5521 97.1797 13.3906C96.9505 13.224 96.7188 13.1589 96.4844 13.1953C96.0729 13.2578 95.6953 13.6432 95.3516 14.3516C95.0651 14.9349 94.9219 15.5677 94.9219 16.25C94.9219 17.0938 95.0859 17.7917 95.4141 18.3438ZM99.8047 11.9922C100.32 12.6745 100.719 13.4141 101 14.2109C101.255 14.9349 101.383 15.6615 101.383 16.3906C101.383 18.0885 100.911 19.4922 99.9688 20.6016C99.0469 21.6849 97.9062 22.2266 96.5469 22.2266C95.1875 22.2266 94.0443 21.6849 93.1172 20.6016C92.1745 19.4922 91.7031 18.0885 91.7031 16.3906C91.7031 15.0156 92.1146 13.7422 92.9375 12.5703C93.9375 11.138 95.0286 10.3568 96.2109 10.2266C96.8984 10.1484 97.5703 10.2812 98.2266 10.625C98.8359 10.9427 99.362 11.3984 99.8047 11.9922ZM121.406 23.1484C121.745 23.3411 121.997 23.6562 122.164 24.0938C122.336 24.5625 122.375 25.0417 122.281 25.5312C122.073 26.5833 121.299 27.25 119.961 27.5312C118.518 27.7656 117.263 27.6953 116.195 27.3203C114.768 26.8151 113.672 25.724 112.906 24.0469C112.604 23.401 112.336 22.625 112.102 21.7188C112.008 21.3646 111.911 20.9609 111.812 20.5078L111.68 19.9141L111.562 19.3359C110.844 19.7109 109.977 19.75 108.961 19.4531C108.935 20.4427 109.047 21.2943 109.297 22.0078H104.727C104.742 21.9401 105.094 20.875 105.781 18.8125C106.469 16.75 107.047 13.9766 107.516 10.4922H113.289C113.227 12.5703 113.703 15.8958 114.719 20.4688C115.021 21.7396 115.456 22.8047 116.023 23.6641C116.68 24.5807 117.375 25.1302 118.109 25.3125C118.844 25.5 119.326 25.5573 119.555 25.4844C119.789 25.4115 119.94 25.3177 120.008 25.2031C119.966 25.2396 119.872 25.2734 119.727 25.3047C119.674 25.3151 119.617 25.3203 119.555 25.3203C119.503 25.3203 119.458 25.3177 119.422 25.3125C119.078 25.2604 118.872 25.0573 118.805 24.7031C118.747 24.4062 118.786 24.1042 118.922 23.7969C119.12 23.3438 119.482 23.0599 120.008 22.9453C120.503 22.8359 120.969 22.9036 121.406 23.1484ZM110.156 13.6875C109.76 14.8542 109.461 15.9479 109.258 16.9688C109.872 17.0625 110.456 17.0234 111.008 16.8516C110.716 15.6432 110.432 14.5885 110.156 13.6875ZM119.898 18.6094C119.93 18.9896 119.958 19.1797 119.984 19.1797C120.661 19.1797 121.247 18.9427 121.742 18.4688C122.195 18.0312 122.492 17.487 122.633 16.8359C122.768 16.1745 122.708 15.5677 122.453 15.0156C122.172 14.4115 121.695 13.9922 121.023 13.7578C120.997 13.7474 120.956 13.7318 120.898 13.7109L120.758 13.6641C120.638 13.6224 120.539 13.5911 120.461 13.5703C120.242 13.513 120.122 13.5286 120.102 13.6172C119.878 14.5286 119.784 15.7214 119.82 17.1953C119.831 17.7161 119.857 18.1875 119.898 18.6094ZM125.406 13.7188C125.677 14.3385 125.846 15.013 125.914 15.7422C126.039 17.1745 125.784 18.4766 125.148 19.6484C124.721 20.4297 124.13 21.0208 123.375 21.4219C122.661 21.8021 121.844 21.9922 120.922 21.9922H118.766C118.771 22.0078 117.87 21.9974 116.062 21.9609C116.099 21.8307 116.138 21.6641 116.18 21.4609C116.237 21.1901 116.289 20.901 116.336 20.5938C116.477 19.7396 116.576 18.8594 116.633 17.9531C116.81 15.2604 116.615 12.7552 116.047 10.4375H116.539L116.766 10.4453H116.984C117.339 10.4453 117.648 10.4453 117.914 10.4453C119.898 10.4349 121.346 10.5755 122.258 10.8672C123.721 11.3255 124.771 12.276 125.406 13.7188ZM142.094 23.1484C142.432 23.3411 142.685 23.6562 142.852 24.0938C143.023 24.5625 143.062 25.0417 142.969 25.5312C142.76 26.5833 141.987 27.25 140.648 27.5312C139.206 27.7656 137.951 27.6953 136.883 27.3203C135.456 26.8151 134.359 25.724 133.594 24.0469C133.292 23.401 133.023 22.625 132.789 21.7188C132.695 21.3646 132.599 20.9609 132.5 20.5078L132.367 19.9141L132.25 19.3359C131.531 19.7109 130.664 19.75 129.648 19.4531C129.622 20.4427 129.734 21.2943 129.984 22.0078H125.414C125.43 21.9401 125.781 20.875 126.469 18.8125C127.156 16.75 127.734 13.9766 128.203 10.4922H133.977C133.914 12.5703 134.391 15.8958 135.406 20.4688C135.708 21.7396 136.143 22.8047 136.711 23.6641C137.367 24.5807 138.062 25.1302 138.797 25.3125C139.531 25.5 140.013 25.5573 140.242 25.4844C140.477 25.4115 140.628 25.3177 140.695 25.2031C140.654 25.2396 140.56 25.2734 140.414 25.3047C140.362 25.3151 140.305 25.3203 140.242 25.3203C140.19 25.3203 140.146 25.3177 140.109 25.3125C139.766 25.2604 139.56 25.0573 139.492 24.7031C139.435 24.4062 139.474 24.1042 139.609 23.7969C139.807 23.3438 140.169 23.0599 140.695 22.9453C141.19 22.8359 141.656 22.9036 142.094 23.1484ZM130.844 13.6875C130.448 14.8542 130.148 15.9479 129.945 16.9688C130.56 17.0625 131.143 17.0234 131.695 16.8516C131.404 15.6432 131.12 14.5885 130.844 13.6875ZM158.094 24.4922C158.255 25.0339 158.242 25.5625 158.055 26.0781C157.883 26.5521 157.578 26.9818 157.141 27.3672C156.729 27.7318 156.245 28.0208 155.688 28.2344C155.135 28.4427 154.586 28.5469 154.039 28.5469C149.987 28.5469 147.258 26.7708 145.852 23.2188C145.607 22.6042 145.406 21.9427 145.25 21.2344C145.13 20.6771 145.031 19.9401 144.953 19.0234C144.88 18.1016 144.836 17.625 144.82 17.5938C144.331 18.9635 144.086 20.4375 144.086 22.0156H141.281C141.208 20.5573 140.852 18.8932 140.211 17.0234C140.19 16.9714 140.18 16.9479 140.18 16.9531C140.18 16.9427 140.102 17.3307 139.945 18.1172C139.794 18.9036 139.734 20.2031 139.766 22.0156H136.188L136.195 21.9922L136.203 21.9609L136.219 21.9297C136.229 21.8932 136.451 20.8724 136.883 18.8672C137.315 16.8568 137.461 14.0625 137.32 10.4844H142.086C141.883 11.9427 142.094 13.5104 142.719 15.1875C143.432 13.5208 143.755 11.9531 143.688 10.4844H148.242C147.945 14.4948 148.06 17.8307 148.586 20.4922C148.831 23.0964 149.698 24.8359 151.188 25.7109C152.094 26.2526 152.964 26.526 153.797 26.5312C154.276 26.5365 154.729 26.4453 155.156 26.2578C155.641 26.0443 155.984 25.7448 156.188 25.3594C156.089 25.4896 155.948 25.5651 155.766 25.5859C155.615 25.6068 155.453 25.5885 155.281 25.5312C154.932 25.4167 154.747 25.1484 154.727 24.7266C154.716 24.3411 154.82 24.0078 155.039 23.7266C155.263 23.4349 155.536 23.2422 155.859 23.1484C156.156 23.0599 156.461 23.0651 156.773 23.1641C157.081 23.2526 157.352 23.4141 157.586 23.6484C157.831 23.888 158 24.1693 158.094 24.4922ZM154.789 17.3359C154.544 17.1432 154.385 16.8984 154.312 16.6016C153.531 16.9193 153.161 17.6667 153.203 18.8438C153.234 19.8594 153.492 20.7214 153.977 21.4297C154.148 21.6849 154.289 21.875 154.398 22H149.531C149.568 21.8802 149.607 21.7109 149.648 21.4922C149.706 21.2109 149.758 20.9089 149.805 20.5859C149.945 19.7005 150.044 18.7917 150.102 17.8594C150.279 15.1094 150.083 12.651 149.516 10.4844H158.102H158.094V10.5C158.089 10.5208 158.086 10.5417 158.086 10.5625C158.07 10.625 158.057 10.6953 158.047 10.7734C158 11.0182 157.956 11.2812 157.914 11.5625C157.779 12.4531 157.672 13.3411 157.594 14.2266C157.37 13.7474 157.076 13.3672 156.711 13.0859C156.336 12.7943 155.93 12.6484 155.492 12.6484C154.878 12.6484 154.339 12.9193 153.875 13.4609C153.417 13.9974 153.143 14.6693 153.055 15.4766C153.44 15.1901 153.833 14.9896 154.234 14.875C154.76 14.724 155.279 14.7266 155.789 14.8828C156.253 15.0286 156.568 15.2344 156.734 15.5C156.896 15.7344 156.977 15.9948 156.977 16.2812C156.977 16.651 156.846 16.9688 156.586 17.2344C156.32 17.5 156 17.6328 155.625 17.6328C155.312 17.6328 155.034 17.5339 154.789 17.3359ZM162.086 18.3438C162.404 18.8802 162.799 19.1484 163.273 19.1484C163.742 19.1484 164.135 18.8802 164.453 18.3438C164.781 17.7917 164.945 17.0938 164.945 16.25C164.945 15.8906 164.901 15.5312 164.812 15.1719C164.714 14.776 164.576 14.4089 164.398 14.0703C164.247 13.7786 164.065 13.5521 163.852 13.3906C163.622 13.224 163.391 13.1589 163.156 13.1953C162.745 13.2578 162.367 13.6432 162.023 14.3516C161.737 14.9349 161.594 15.5677 161.594 16.25C161.594 17.0938 161.758 17.7917 162.086 18.3438ZM166.477 11.9922C166.992 12.6745 167.391 13.4141 167.672 14.2109C167.927 14.9349 168.055 15.6615 168.055 16.3906C168.055 18.0885 167.583 19.4922 166.641 20.6016C165.719 21.6849 164.578 22.2266 163.219 22.2266C161.859 22.2266 160.716 21.6849 159.789 20.6016C158.846 19.4922 158.375 18.0885 158.375 16.3906C158.375 15.0156 158.786 13.7422 159.609 12.5703C160.609 11.138 161.701 10.3568 162.883 10.2266C163.57 10.1484 164.242 10.2812 164.898 10.625C165.508 10.9427 166.034 11.3984 166.477 11.9922Z" fill="#030830"/>
</svg>
