<svg width="25" height="24" viewBox="0 0 25 24" fill="none" xmlns="http://www.w3.org/2000/svg">
<g clip-path="url(#clip0_220_162)">
<path fill-rule="evenodd" clip-rule="evenodd" d="M15.5001 19C15.5003 19.5046 15.3097 19.9906 14.9666 20.3605C14.6235 20.7305 14.1532 20.9572 13.6501 20.995L13.5001 21H11.5001C10.9955 21.0002 10.5095 20.8096 10.1395 20.4665C9.76956 20.1234 9.54294 19.6532 9.50509 19.15L9.50009 19H15.5001ZM12.5001 2C14.3151 1.99997 16.0591 2.70489 17.3643 3.96607C18.6695 5.22726 19.4339 6.94609 19.4961 8.76L19.5001 9V12.764L21.3221 16.408C21.4016 16.567 21.4414 16.7429 21.4381 16.9206C21.4347 17.0984 21.3884 17.2727 21.3029 17.4286C21.2175 17.5845 21.0956 17.7174 20.9476 17.8158C20.7996 17.9143 20.6299 17.9754 20.4531 17.994L20.3381 18H4.66209C4.48426 18.0001 4.30906 17.957 4.15151 17.8745C3.99397 17.792 3.85877 17.6725 3.75751 17.5264C3.65625 17.3802 3.59194 17.2116 3.5701 17.0351C3.54825 16.8586 3.56953 16.6795 3.63209 16.513L3.67809 16.408L5.50009 12.764V9C5.50009 7.14348 6.23759 5.36301 7.55035 4.05025C8.8631 2.7375 10.6436 2 12.5001 2ZM12.5001 4C11.2116 4.00007 9.97293 4.49754 9.04232 5.38866C8.1117 6.27978 7.56101 7.49575 7.50509 8.783L7.50009 9V12.764C7.5001 13.012 7.45399 13.2579 7.36409 13.489L7.28909 13.659L6.11909 16H18.8821L17.7121 13.658C17.6011 13.4363 17.5323 13.1959 17.5091 12.949L17.5001 12.764V9C17.5001 7.67392 16.9733 6.40215 16.0356 5.46447C15.0979 4.52678 13.8262 4 12.5001 4Z" fill="black"/>
</g>
<defs>
<clipPath id="clip0_220_162">
<rect width="24" height="24" fill="white" transform="translate(0.5)"/>
</clipPath>
</defs>
</svg>
