<svg width="24" height="24" viewBox="0 0 24 24" fill="none" xmlns="http://www.w3.org/2000/svg">
<path fill-rule="evenodd" clip-rule="evenodd" d="M6.98905 4.88983C10.3246 4.62787 13.6755 4.62787 17.011 4.88983L19.251 5.06583C19.8577 5.11313 20.4311 5.36214 20.8799 5.77317C21.3286 6.18421 21.6268 6.73361 21.727 7.33383C22.244 10.4238 22.244 13.5768 21.727 16.6658C21.6269 17.2659 21.3288 17.8152 20.8803 18.2262C20.4317 18.6372 19.8586 18.8863 19.2521 18.9338L17.012 19.1088C13.6762 19.3709 10.3249 19.3709 6.98905 19.1088L4.74905 18.9338C4.14236 18.8865 3.56896 18.6375 3.12023 18.2265C2.6715 17.8155 2.37326 17.2661 2.27305 16.6658C1.75664 13.5766 1.75664 10.4231 2.27305 7.33383C2.37322 6.73377 2.67131 6.18448 3.11984 5.77346C3.56837 5.36245 4.14154 5.11334 4.74805 5.06583L6.98905 4.88983ZM10 14.4698V9.52983C10.0001 9.47682 10.0143 9.42477 10.041 9.37899C10.0677 9.33321 10.1061 9.29534 10.1523 9.26922C10.1984 9.2431 10.2506 9.22968 10.3036 9.23031C10.3567 9.23095 10.4086 9.24562 10.454 9.27283L14.571 11.7428C14.6154 11.7695 14.652 11.8072 14.6775 11.8522C14.7029 11.8973 14.7163 11.9481 14.7163 11.9998C14.7163 12.0516 14.7029 12.1024 14.6775 12.1474C14.652 12.1925 14.6154 12.2302 14.571 12.2568L10.454 14.7268C10.4086 14.754 10.3567 14.7687 10.3036 14.7694C10.2506 14.77 10.1984 14.7566 10.1523 14.7304C10.1061 14.7043 10.0677 14.6665 10.041 14.6207C10.0143 14.5749 10.0001 14.5229 10 14.4698Z" fill="#525252"/>
</svg>
